<?xml version="1.0" encoding="UTF-8" standalone="no"?>
<!DOCTYPE svg PUBLIC "-//W3C//DTD SVG 1.1//EN"
 "http://www.w3.org/Graphics/SVG/1.1/DTD/svg11.dtd">
<!-- Generated by graphviz version 2.40.1 (20161225.0304)
 -->
<!-- Title: %0 Pages: 1 -->
<svg width="550pt" height="711pt"
 viewBox="0.00 0.00 550.00 711.20" xmlns="http://www.w3.org/2000/svg" xmlns:xlink="http://www.w3.org/1999/xlink">
<g id="graph0" class="graph" transform="scale(1 1) rotate(0) translate(4 707.2)">
<title>%0</title>
<polygon fill="#ffffff" stroke="transparent" points="-4,4 -4,-707.2 546,-707.2 546,4 -4,4"/>
<g id="clust1" class="cluster">
<title>cluster_/ROOT</title>
<polygon fill="none" stroke="transparent" points="8,-8 8,-695.2 534,-695.2 534,-8 8,-8"/>
</g>
<!-- /ROOT/__proxy__ -->
<g id="node1" class="node">
<title>/ROOT/__proxy__</title>
<g id="a_node1"><a xlink:href="/ROOT" xlink:title=" RUN TASK MANAGEMENT SYSTEM">
<text text-anchor="middle" x="310" y="-667" font-family="Times,serif" font-size="18.00" fill="#000000"> RUN TASK MANAGEMENT SYSTEM</text>
</a>
</g>
</g>
<!-- /ROOT/STARTUP -->
<g id="node4" class="node">
<title>/ROOT/STARTUP</title>
<g id="a_node4"><a xlink:href="/ROOT/STARTUP" xlink:title=" STARTUP">
<ellipse fill="transparent" stroke="#000000" stroke-width="2" cx="310" cy="-515.2" rx="56.2385" ry="18"/>
<text text-anchor="middle" x="310" y="-511" font-family="Times,serif" font-size="14.00" fill="#000000"> STARTUP</text>
</a>
</g>
</g>
<!-- /ROOT/__proxy__&#45;&gt;/ROOT/STARTUP -->
<g id="edge14" class="edge">
<title>/ROOT/__proxy__&#45;&gt;/ROOT/STARTUP</title>
<g id="a_edge14"><a xlink:href="/ROOT/__proxy__::/ROOT/STARTUP" xlink:title=" ">
<path fill="none" stroke="#000000" stroke-width="2" d="M310,-657.611C310,-631.5414 310,-577.004 310,-543.4981"/>
<polygon fill="#000000" stroke="#000000" stroke-width="2" points="313.5001,-543.4212 310,-533.4213 306.5001,-543.4213 313.5001,-543.4212"/>
</a>
</g>
<g id="a_edge14&#45;label"><a xlink:href="/ROOT/__proxy__::/ROOT/STARTUP" xlink:title=" ">
<text text-anchor="middle" x="311.5" y="-591.8" font-family="Times,serif" font-size="12.00" fill="#000000"> </text>
</a>
</g>
</g>
<!-- /ROOT/READY_FOR_TASK -->
<g id="node2" class="node">
<title>/ROOT/READY_FOR_TASK</title>
<g id="a_node2"><a xlink:href="/ROOT/READY_FOR_TASK" xlink:title=" READY_FOR_TASK">
<ellipse fill="#c0c0c0" stroke="#000000" stroke-width="2" cx="310" cy="-354.8" rx="100.2035" ry="18"/>
<text text-anchor="middle" x="310" y="-350.6" font-family="Times,serif" font-size="14.00" fill="#000000"> READY_FOR_TASK</text>
</a>
</g>
</g>
<!-- /ROOT/READY_FOR_TASK&#45;&gt;/ROOT/READY_FOR_TASK -->
<g id="edge5" class="edge">
<title>/ROOT/READY_FOR_TASK&#45;&gt;/ROOT/READY_FOR_TASK</title>
<g id="a_edge5"><a xlink:href="/ROOT/READY_FOR_TASK:REPEAT:/ROOT/READY_FOR_TASK" xlink:title=" ">
<path fill="none" stroke="#000000" stroke-width="2" d="M399.5012,-363.0287C425.8758,-362.7636 446.3517,-360.0207 446.3517,-354.8 446.3517,-350.2727 430.9535,-347.6087 409.6635,-346.808"/>
<polygon fill="#000000" stroke="#000000" stroke-width="2" points="409.58,-343.3052 399.5012,-346.5713 409.4169,-350.3033 409.58,-343.3052"/>
</a>
</g>
<g id="a_edge5&#45;label"><a xlink:href="/ROOT/READY_FOR_TASK:REPEAT:/ROOT/READY_FOR_TASK" xlink:title=" ">
<text text-anchor="middle" x="447.8517" y="-351.2" font-family="Times,serif" font-size="12.00" fill="#000000"> </text>
</a>
</g>
<g id="a_edge5&#45;label"><a xlink:href="/ROOT/READY_FOR_TASK:REPEAT:/ROOT/READY_FOR_TASK" xlink:title=" ">
<text text-anchor="middle" x="422.4744" y="-366.6255" font-family="Times,serif" font-size="12.00" fill="#000000">REPEAT</text>
</a>
</g>
</g>
<!-- /ROOT/GOAL -->
<g id="node5" class="node">
<title>/ROOT/GOAL</title>
<g id="a_node5"><a xlink:href="/ROOT/GOAL" xlink:title=" GOAL">
<ellipse fill="#87cefa" stroke="#000000" stroke-width="2" cx="286" cy="-194.4" rx="40.0298" ry="18"/>
<text text-anchor="middle" x="286" y="-190.2" font-family="Times,serif" font-size="14.00" fill="#000000"> GOAL</text>
</a>
</g>
</g>
<!-- /ROOT/READY_FOR_TASK&#45;&gt;/ROOT/GOAL -->
<g id="edge1" class="edge">
<title>/ROOT/READY_FOR_TASK&#45;&gt;/ROOT/GOAL</title>
<g id="a_edge1"><a xlink:href="/ROOT/READY_FOR_TASK:FAIL:/ROOT/GOAL" xlink:title=" &#160;START &amp; TARGET NAME ">
<path fill="none" stroke="#000000" stroke-width="2" d="M250.4652,-340.2095C199.7835,-326.4416 132.7517,-304.566 117.0232,-281.8 84.1027,-234.1495 175.5662,-210.7704 236.4583,-200.7693"/>
<polygon fill="#000000" stroke="#000000" stroke-width="2" points="237.352,-204.1721 246.6894,-199.1658 236.268,-197.2565 237.352,-204.1721"/>
</a>
</g>
<g id="a_edge1&#45;label"><a xlink:href="/ROOT/READY_FOR_TASK:FAIL:/ROOT/GOAL" xlink:title=" &#160;START &amp; TARGET NAME ">
<text text-anchor="middle" x="190.9884" y="-271" font-family="Times,serif" font-size="12.00" fill="#000000"> &#160;START &amp; TARGET NAME </text>
</a>
</g>
</g>
<!-- /ROOT/ERROR -->
<g id="node3" class="node">
<title>/ROOT/ERROR</title>
<g id="a_node3"><a xlink:href="/ROOT/ERROR" xlink:title=" ERROR">
<ellipse fill="#f08080" stroke="#000000" stroke-width="2" cx="102" cy="-34" rx="45.7848" ry="18"/>
<text text-anchor="middle" x="102" y="-29.8" font-family="Times,serif" font-size="14.00" fill="#000000"> ERROR</text>
</a>
</g>
</g>
<!-- /ROOT/ERROR&#45;&gt;/ROOT/READY_FOR_TASK -->
<g id="edge10" class="edge">
<title>/ROOT/ERROR&#45;&gt;/ROOT/READY_FOR_TASK</title>
<g id="a_edge10"><a xlink:href="/ROOT/ERROR:CANCEL:/ROOT/READY_FOR_TASK" xlink:title=" CANCEL">
<path fill="none" stroke="#000000" stroke-width="2" d="M96.158,-52.0716C83.3493,-95.2565 57.2732,-206.4509 101,-281.8 114.9158,-305.7794 179.5245,-325.9158 233.2699,-338.925"/>
<polygon fill="#000000" stroke="#000000" stroke-width="2" points="232.6265,-342.3694 243.1642,-341.2704 234.2412,-335.5581 232.6265,-342.3694"/>
</a>
</g>
<g id="a_edge10&#45;label"><a xlink:href="/ROOT/ERROR:CANCEL:/ROOT/READY_FOR_TASK" xlink:title=" CANCEL">
<text text-anchor="middle" x="103.4964" y="-190.8" font-family="Times,serif" font-size="12.00" fill="#000000"> CANCEL</text>
</a>
</g>
</g>
<!-- /ROOT/STARTUP&#45;&gt;/ROOT/READY_FOR_TASK -->
<g id="edge6" class="edge">
<title>/ROOT/STARTUP&#45;&gt;/ROOT/READY_FOR_TASK</title>
<g id="a_edge6"><a xlink:href="/ROOT/STARTUP:TIMEOUT:/ROOT/READY_FOR_TASK" xlink:title=" TIMEOUT">
<path fill="none" stroke="#000000" stroke-width="2" d="M310,-497.1119C310,-469.4346 310,-416.3281 310,-383.3968"/>
<polygon fill="#000000" stroke="#000000" stroke-width="2" points="313.5001,-383.0681 310,-373.0681 306.5001,-383.0682 313.5001,-383.0681"/>
</a>
</g>
<g id="a_edge6&#45;label"><a xlink:href="/ROOT/STARTUP:TIMEOUT:/ROOT/READY_FOR_TASK" xlink:title=" TIMEOUT">
<text text-anchor="middle" x="338.4898" y="-431.4" font-family="Times,serif" font-size="12.00" fill="#000000"> TIMEOUT</text>
</a>
</g>
</g>
<!-- /ROOT/STARTUP&#45;&gt;/ROOT/STARTUP -->
<g id="edge2" class="edge">
<title>/ROOT/STARTUP&#45;&gt;/ROOT/STARTUP</title>
<g id="a_edge2"><a xlink:href="/ROOT/STARTUP:REPEAT:/ROOT/STARTUP" xlink:title=" &#160;">
<path fill="none" stroke="#000000" stroke-width="2" d="M360.3565,-523.3211C382.885,-524.0945 402.3691,-521.3875 402.3691,-515.2 402.3691,-509.9793 388.4981,-507.2364 370.631,-506.9713"/>
<polygon fill="#000000" stroke="#000000" stroke-width="2" points="370.3193,-503.4743 360.3565,-507.0789 370.3926,-510.4739 370.3193,-503.4743"/>
</a>
</g>
<g id="a_edge2&#45;label"><a xlink:href="/ROOT/STARTUP:REPEAT:/ROOT/STARTUP" xlink:title=" &#160;">
<text text-anchor="middle" x="405.3691" y="-511.6" font-family="Times,serif" font-size="12.00" fill="#000000"> &#160;</text>
</a>
</g>
<g id="a_edge2&#45;label"><a xlink:href="/ROOT/STARTUP:REPEAT:/ROOT/STARTUP" xlink:title=" &#160;">
<text text-anchor="middle" x="383.2848" y="-526.93" font-family="Times,serif" font-size="12.00" fill="#000000">REPEAT</text>
</a>
</g>
</g>
<!-- /ROOT/GOAL&#45;&gt;/ROOT/READY_FOR_TASK -->
<g id="edge8" class="edge">
<title>/ROOT/GOAL&#45;&gt;/ROOT/READY_FOR_TASK</title>
<g id="a_edge8"><a xlink:href="/ROOT/GOAL:CANCEL:/ROOT/READY_FOR_TASK" xlink:title=" CANCEL">
<path fill="none" stroke="#000000" stroke-width="2" d="M288.7334,-212.6681C292.8911,-240.4553 300.8388,-293.5729 305.7531,-326.4167"/>
<polygon fill="#000000" stroke="#000000" stroke-width="2" points="302.3522,-327.3399 307.2935,-336.7119 309.2751,-326.304 302.3522,-327.3399"/>
</a>
</g>
<g id="a_edge8&#45;label"><a xlink:href="/ROOT/GOAL:CANCEL:/ROOT/READY_FOR_TASK" xlink:title=" CANCEL">
<text text-anchor="middle" x="323.4964" y="-271" font-family="Times,serif" font-size="12.00" fill="#000000"> CANCEL</text>
</a>
</g>
</g>
<!-- /ROOT/GOAL&#45;&gt;/ROOT/READY_FOR_TASK -->
<g id="edge11" class="edge">
<title>/ROOT/GOAL&#45;&gt;/ROOT/READY_FOR_TASK</title>
<g id="a_edge11"><a xlink:href="/ROOT/GOAL:SUCCESS:/ROOT/READY_FOR_TASK" xlink:title=" SUCCESS">
<path fill="none" stroke="#000000" stroke-width="2" d="M308.2929,-209.4005C325.4998,-222.4354 348.0021,-243.0255 358,-267.4 366.9444,-289.206 352.7985,-312.5383 337.5927,-329.6058"/>
<polygon fill="#000000" stroke="#000000" stroke-width="2" points="334.9454,-327.3112 330.6108,-336.9788 340.0281,-332.1243 334.9454,-327.3112"/>
</a>
</g>
<g id="a_edge11&#45;label"><a xlink:href="/ROOT/GOAL:SUCCESS:/ROOT/READY_FOR_TASK" xlink:title=" SUCCESS">
<text text-anchor="middle" x="387.5058" y="-271" font-family="Times,serif" font-size="12.00" fill="#000000"> SUCCESS</text>
</a>
</g>
</g>
<!-- /ROOT/GOAL&#45;&gt;/ROOT/ERROR -->
<g id="edge13" class="edge">
<title>/ROOT/GOAL&#45;&gt;/ROOT/ERROR</title>
<g id="a_edge13"><a xlink:href="/ROOT/GOAL:FAIL:/ROOT/ERRROR" xlink:title=" FAIL">
<path fill="none" stroke="#000000" stroke-width="2" d="M267.3445,-178.1373C234.5054,-149.5101 166.2868,-90.0414 128.547,-57.1421"/>
<polygon fill="#000000" stroke="#000000" stroke-width="2" points="130.8179,-54.4785 120.9801,-50.5457 126.2181,-59.7551 130.8179,-54.4785"/>
</a>
</g>
<g id="a_edge13&#45;label"><a xlink:href="/ROOT/GOAL:FAIL:/ROOT/ERRROR" xlink:title=" FAIL">
<text text-anchor="middle" x="215.8296" y="-110.6" font-family="Times,serif" font-size="12.00" fill="#000000"> FAIL</text>
</a>
</g>
</g>
<!-- /ROOT/GOAL&#45;&gt;/ROOT/GOAL -->
<g id="edge3" class="edge">
<title>/ROOT/GOAL&#45;&gt;/ROOT/GOAL</title>
<g id="a_edge3"><a xlink:href="/ROOT/GOAL:REPEAT:/ROOT/GOAL" xlink:title=" ">
<path fill="none" stroke="#000000" stroke-width="2" d="M322.4875,-202.2265C343.1415,-203.7549 362.2642,-201.1461 362.2642,-194.4 362.2642,-188.8134 349.15,-186.0641 332.9122,-186.152"/>
<polygon fill="#000000" stroke="#000000" stroke-width="2" points="332.338,-182.6723 322.4875,-186.5735 332.6208,-189.6666 332.338,-182.6723"/>
</a>
</g>
<g id="a_edge3&#45;label"><a xlink:href="/ROOT/GOAL:REPEAT:/ROOT/GOAL" xlink:title=" ">
<text text-anchor="middle" x="363.7642" y="-190.8" font-family="Times,serif" font-size="12.00" fill="#000000"> </text>
</a>
</g>
<g id="a_edge3&#45;label"><a xlink:href="/ROOT/GOAL:REPEAT:/ROOT/GOAL" xlink:title=" ">
<text text-anchor="middle" x="345.3939" y="-205.8442" font-family="Times,serif" font-size="12.00" fill="#000000">REPEAT</text>
</a>
</g>
</g>
<!-- /ROOT/PAUSED -->
<g id="node6" class="node">
<title>/ROOT/PAUSED</title>
<g id="a_node6"><a xlink:href="/ROOT/PAUSED" xlink:title=" PAUSED">
<ellipse fill="#ffffcc" stroke="#000000" stroke-width="2" cx="397" cy="-34" rx="51.0016" ry="18"/>
<text text-anchor="middle" x="397" y="-29.8" font-family="Times,serif" font-size="14.00" fill="#000000"> PAUSED</text>
</a>
</g>
</g>
<!-- /ROOT/GOAL&#45;&gt;/ROOT/PAUSED -->
<g id="edge7" class="edge">
<title>/ROOT/GOAL&#45;&gt;/ROOT/PAUSED</title>
<g id="a_edge7"><a xlink:href="/ROOT/GOAL:PAUSE:/ROOT/PAUSED" xlink:title=" PAUSE">
<path fill="none" stroke="#000000" stroke-width="2" d="M298.0902,-176.929C317.5874,-148.7548 356.0869,-93.1212 378.8772,-60.1883"/>
<polygon fill="#000000" stroke="#000000" stroke-width="2" points="381.7733,-62.1538 384.5858,-51.9391 376.0172,-58.1704 381.7733,-62.1538"/>
</a>
</g>
<g id="a_edge7&#45;label"><a xlink:href="/ROOT/GOAL:PAUSE:/ROOT/PAUSED" xlink:title=" PAUSE">
<text text-anchor="middle" x="366.499" y="-110.6" font-family="Times,serif" font-size="12.00" fill="#000000"> PAUSE</text>
</a>
</g>
</g>
<!-- /ROOT/PAUSED&#45;&gt;/ROOT/READY_FOR_TASK -->
<g id="edge9" class="edge">
<title>/ROOT/PAUSED&#45;&gt;/ROOT/READY_FOR_TASK</title>
<g id="a_edge9"><a xlink:href="/ROOT/PAUSED:CANCEL:/ROOT/READY_FOR_TASK" xlink:title=" CANCEL">
<path fill="none" stroke="#000000" stroke-width="2" d="M405.5557,-51.8712C424.6861,-94.6171 466.0609,-204.9209 424,-281.8 411.1117,-305.3574 387.019,-322.4282 364.2909,-334.11"/>
<polygon fill="#000000" stroke="#000000" stroke-width="2" points="362.4631,-331.1072 355.0071,-338.6344 365.5298,-337.3997 362.4631,-331.1072"/>
</a>
</g>
<g id="a_edge9&#45;label"><a xlink:href="/ROOT/PAUSED:CANCEL:/ROOT/READY_FOR_TASK" xlink:title=" CANCEL">
<text text-anchor="middle" x="467.4964" y="-190.8" font-family="Times,serif" font-size="12.00" fill="#000000"> CANCEL</text>
</a>
</g>
</g>
<!-- /ROOT/PAUSED&#45;&gt;/ROOT/GOAL -->
<g id="edge12" class="edge">
<title>/ROOT/PAUSED&#45;&gt;/ROOT/GOAL</title>
<g id="a_edge12"><a xlink:href="/ROOT/PAUSED:CONTINUE:/ROOT/GOAL" xlink:title=" CONTINUE">
<path fill="none" stroke="#000000" stroke-width="2" d="M354.8864,-44.4046C323.3941,-54.6355 282.4937,-73.6958 262.6896,-107 251.5485,-125.7357 259.3419,-149.8487 268.8124,-167.9997"/>
<polygon fill="#000000" stroke="#000000" stroke-width="2" points="265.8646,-169.8978 273.8263,-176.888 271.9614,-166.4585 265.8646,-169.8978"/>
</a>
</g>
<g id="a_edge12&#45;label"><a xlink:href="/ROOT/PAUSED:CONTINUE:/ROOT/GOAL" xlink:title=" CONTINUE">
<text text-anchor="middle" x="294.1552" y="-110.6" font-family="Times,serif" font-size="12.00" fill="#000000"> CONTINUE</text>
</a>
</g>
</g>
<!-- /ROOT/PAUSED&#45;&gt;/ROOT/PAUSED -->
<g id="edge4" class="edge">
<title>/ROOT/PAUSED&#45;&gt;/ROOT/PAUSED</title>
<g id="a_edge4"><a xlink:href="/ROOT/PAUSED:REPEAT:/ROOT/PAUSED" xlink:title=" ">
<path fill="none" stroke="#000000" stroke-width="2" d="M442.6553,-42.0486C464.6154,-43.0422 484.0008,-40.3594 484.0008,-34 484.0008,-28.6343 470.2,-25.8859 452.6964,-25.7549"/>
<polygon fill="#000000" stroke="#000000" stroke-width="2" points="452.5849,-22.2563 442.6553,-25.9514 452.7219,-29.255 452.5849,-22.2563"/>
</a>
</g>
<g id="a_edge4&#45;label"><a xlink:href="/ROOT/PAUSED:REPEAT:/ROOT/PAUSED" xlink:title=" ">
<text text-anchor="middle" x="485.5008" y="-30.4" font-family="Times,serif" font-size="12.00" fill="#000000"> </text>
</a>
</g>
<g id="a_edge4&#45;label"><a xlink:href="/ROOT/PAUSED:REPEAT:/ROOT/PAUSED" xlink:title=" ">
<text text-anchor="middle" x="465.5769" y="-45.6601" font-family="Times,serif" font-size="12.00" fill="#000000">REPEAT</text>
</a>
</g>
</g>
</g>
</svg>
