# The Great Editor v0.0.1
mtllib floor_1.mtl
o floor_1
v 13.087517132094547 -7.1167423840467965 0
v 13.087517132094547 -7.1167423840467965 -0.1
v 15.160909898050168 -7.116286386122846 0
v 15.160909898050168 -7.116286386122846 -0.1
v 15.176582805869078 -20.534320404785284 0
v 15.176582805869078 -20.534320404785284 -0.1
v 21.314214700359386 -20.475640962316795 0
v 21.314214700359386 -20.475640962316795 -0.1
v 21.331428829540354 -22.768981581247825 0
v 21.331428829540354 -22.768981581247825 -0.1
v 15.271258320361543 -22.714020317704286 0
v 15.271258320361543 -22.714020317704286 -0.1
v 15.244034088605527 -31.084382452869956 0
v 15.244034088605527 -31.084382452869956 -0.1
v 29.378263184077785 -31.068012566822485 0
v 29.378263184077785 -31.068012566822485 -0.1
v 33.02598491002405 -31.042892912108844 0
v 33.02598491002405 -31.042892912108844 -0.1
v 32.994216519102146 -34.19026825725737 0
v 32.994216519102146 -34.19026825725737 -0.1
v 6.732740980622428 -34.24300634882646 0
v 6.732740980622428 -34.24300634882646 -0.1
v 6.81610309594204 -31.099747591650214 0
v 6.81610309594204 -31.099747591650214 -0.1
v 13.026658127776953 -31.082089843050223 0
v 13.026658127776953 -31.082089843050223 -0.1
v 13.046608232650485 -23.226042894882823 0
v 13.046608232650485 -23.226042894882823 -0.1
v 13.042294610979576 -24.924681301954084 0
v 13.042294610979576 -24.924681301954084 -0.1
v 13.045672741724786 -23.59442494993746 0
v 13.045672741724786 -23.59442494993746 -0.1
vt 13.087517132094547 -7.1167423840467965 0
vt 15.160909898050168 -7.116286386122846 0
vt 15.176582805869078 -20.534320404785284 0
vt 21.314214700359386 -20.475640962316795 0
vt 21.331428829540354 -22.768981581247825 0
vt 15.271258320361543 -22.714020317704286 0
vt 15.244034088605527 -31.084382452869956 0
vt 29.378263184077785 -31.068012566822485 0
vt 33.02598491002405 -31.042892912108844 0
vt 32.994216519102146 -34.19026825725737 0
vt 6.732740980622428 -34.24300634882646 0
vt 6.81610309594204 -31.099747591650214 0
vt 13.026658127776953 -31.082089843050223 0
vt 13.046608232650485 -23.226042894882823 0
vt 13.042294610979576 -24.924681301954084 0
vt 13.045672741724786 -23.59442494993746 0
vn 0 0 1
vn 0 0 -1
usemtl floor_1
s off
f 5/3/1 1/1/1 27/14/1
f 28/14/2 2/1/2 6/3/2
f 5/3/1 3/2/1 1/1/1
f 2/1/2 4/2/2 6/3/2
f 15/8/1 19/10/1 17/9/1
f 18/9/2 20/10/2 16/8/2
f 19/10/1 13/7/1 21/11/1
f 22/11/2 14/7/2 20/10/2
f 13/7/1 25/13/1 21/11/1
f 22/11/2 26/13/2 14/7/2
f 25/13/1 23/12/1 21/11/1
f 22/11/2 24/12/2 26/13/2
f 25/13/1 11/6/1 29/15/1
f 30/15/2 12/6/2 26/13/2
f 31/16/1 11/6/1 27/14/1
f 28/14/2 12/6/2 32/16/2
f 31/16/1 29/15/1 11/6/1
f 12/6/2 30/15/2 32/16/2
f 11/6/1 5/3/1 27/14/1
f 28/14/2 6/3/2 12/6/2
f 11/6/1 7/4/1 5/3/1
f 6/3/2 8/4/2 12/6/2
f 11/6/1 9/5/1 7/4/1
f 8/4/2 10/5/2 12/6/2
f 13/7/1 19/10/1 15/8/1
f 16/8/2 20/10/2 14/7/2
f 11/6/1 25/13/1 13/7/1
f 14/7/2 26/13/2 12/6/2
